<?xml version="1.0" standalone="no"?><!DOCTYPE svg PUBLIC "-//W3C//DTD SVG 1.1//EN" "http://www.w3.org/Graphics/SVG/1.1/DTD/svg11.dtd"><svg t="1615369931580" class="icon" viewBox="0 0 1024 1024" version="1.1" xmlns="http://www.w3.org/2000/svg" p-id="1299" xmlns:xlink="http://www.w3.org/1999/xlink" width="200" height="200"><defs><style type="text/css"></style></defs><path d="M512 2C230.6 2 2 230.6 2 512s228.6 510 510 510 510-228.6 510-510S793.3 2 512 2z m-93.5 644.3c-24.6 0-49.3-4.3-71.4-10.2-1.7 0-4.3-1.7-4.3-1.7l-55.3 32.3c-14.4 8.5-24.7 1.7-20.4-14.4 0 0 14.4-59.5 11.9-59.5-52.7-34.9-77.4-79.9-77.4-141.1 4.3-102.8 94.4-184.5 216.8-184.5 112.2 0 204 69.7 220.2 161.5h-10.2c-112.2 0-204 77.4-204 173.4 0 16.1 1.7 30.6 6 45h-11.9v-0.8z m328.1 79.9l16.1 32.3c8.5 14.5 1.7 20.4-11.9 11.9 0 0-40.8-24.7-42.5-22.1-18.7 6-59.5 11.9-79.9 11.9-103.7 0-189.6-71.4-189.6-159s85.9-159 189.6-159S818 513.7 818 601.3c0 51.8-26.3 94.3-71.4 124.9zM353 363.3c-8.5-5.1-19.5-5.1-28.9 0-8.5 5.1-14.4 14.4-14.4 24.6s5.1 19.6 14.4 24.7c8.5 5.1 19.6 5.1 28.9 0 8.5-5.1 14.5-14.5 14.5-24.7s-6-19.6-14.5-24.6zM510.3 416c16.2 0 28.9-12.8 28.9-28.9 0-10.2-5.1-19.5-14.4-24.6-8.5-5.1-19.6-5.1-28.9 0-9.3 5.1-14.4 14.4-14.4 24.6-0.1 16.1 12.6 28.9 28.8 28.9z m187 100.3c-13.6 0-24.6 11-24.6 24.6s11 24.6 24.6 24.6 24.7-11 24.7-24.6-11.1-24.6-24.7-24.6z m-134.3 0c-13.6 0-24.6 11-24.6 24.6s11 24.6 24.6 24.6 24.6-11 24.6-24.6-11-24.6-24.6-24.6z" fill="#08BA06" p-id="1300"></path></svg>